<svg width="20" height="20" viewBox="0 0 20 20" fill="none" xmlns="http://www.w3.org/2000/svg">
<path d="M7.92541 0.666626L7.81075 1.24929L7.37208 3.37996C6.68327 3.64767 6.03871 4.0176 5.46008 4.47729L3.31608 3.75996L2.74008 3.58263L2.44141 4.09596L0.965415 6.56396L0.666748 7.07996L1.10408 7.46263L2.76275 8.87329C2.70275 9.24263 2.62541 9.60663 2.62541 9.99463C2.62541 10.3826 2.70275 10.748 2.76275 11.1173L1.10408 12.5266L0.666748 12.9093L0.965415 13.424L2.44141 15.8906L2.74008 16.4066L3.31608 16.2266L5.46008 15.5106C6.03475 15.9613 6.67075 16.34 7.37208 16.608L7.81075 18.7386L7.92541 19.3213H12.0734L12.1894 18.7386L12.6267 16.608C13.3155 16.3402 13.9601 15.9703 14.5387 15.5106L16.6827 16.2266L17.2587 16.4066L17.5587 15.892L19.0334 13.424L19.3334 12.9093L18.8947 12.5266L17.2361 11.116C17.2974 10.7466 17.3734 10.3826 17.3734 9.99329C17.3734 9.60663 17.2974 9.24129 17.2361 8.87196L18.8947 7.46129L19.3334 7.07863L19.0334 6.56396L17.5587 4.09729L17.2587 3.58263L16.6827 3.76129L14.5387 4.47729C13.9601 4.0176 13.3156 3.64767 12.6267 3.37996L12.1894 1.24929L12.0734 0.666626H7.92541Z" stroke="#222222" stroke-linecap="square" stroke-linejoin="round"/>
<path d="M12.6668 9.99333C12.6668 10.7006 12.3859 11.3788 11.8858 11.8789C11.3857 12.379 10.7074 12.66 10.0002 12.66C9.29292 12.66 8.61464 12.379 8.11454 11.8789C7.61445 11.3788 7.3335 10.7006 7.3335 9.99333C7.3335 9.28608 7.61445 8.60781 8.11454 8.10771C8.61464 7.60761 9.29292 7.32666 10.0002 7.32666C10.7074 7.32666 11.3857 7.60761 11.8858 8.10771C12.3859 8.60781 12.6668 9.28608 12.6668 9.99333V9.99333Z" stroke="#222222" stroke-linecap="square" stroke-linejoin="round"/>
</svg>
